<svg width="188" height="32" viewBox="0 0 188 32" fill="none" xmlns="http://www.w3.org/2000/svg">
<path fill-rule="evenodd" clip-rule="evenodd" d="M2.04286 0C1.19082 0 0.5 0.682244 0.5 1.52381V9.14284C0.5 9.9844 1.19082 10.6666 2.04286 10.6666H9.75714C10.6092 10.6666 11.3 11.3489 11.3 12.1904V19.9694C11.3 20.7226 11.9181 21.3333 12.6809 21.3333H16.7C22.6646 21.3333 27.5 16.5577 27.5 10.6666C27.5 4.77561 22.6646 0 16.7 0H2.04286ZM2.04286 21.3334C1.19077 21.3334 0.500005 22.0156 0.500005 22.8572V30.4762C0.500005 31.3178 1.19077 32 2.04286 32H9.75714C10.6092 32 11.3 31.3178 11.3 30.4762V22.8572C11.3 22.0156 10.6092 21.3334 9.75714 21.3334H2.04286Z" fill="#4B2DBB"/>
<path d="M44.228 26V8.12H50.9C52.116 8.12 53.188 8.344 54.116 8.792C55.06 9.224 55.796 9.864 56.324 10.712C56.852 11.544 57.116 12.56 57.116 13.76C57.116 14.944 56.844 15.96 56.3 16.808C55.772 17.64 55.044 18.28 54.116 18.728C53.188 19.176 52.116 19.4 50.9 19.4H47.492V26H44.228ZM47.492 16.52H50.948C51.54 16.52 52.052 16.408 52.484 16.184C52.916 15.944 53.252 15.616 53.492 15.2C53.732 14.784 53.852 14.304 53.852 13.76C53.852 13.2 53.732 12.72 53.492 12.32C53.252 11.904 52.916 11.584 52.484 11.36C52.052 11.12 51.54 11 50.948 11H47.492V16.52ZM59.5265 26V12.944H62.4785V15.848L62.2385 15.416C62.5425 14.44 63.0145 13.76 63.6545 13.376C64.3105 12.992 65.0945 12.8 66.0065 12.8H66.7745V15.584H65.6465C64.7505 15.584 64.0305 15.864 63.4865 16.424C62.9425 16.968 62.6705 17.736 62.6705 18.728V26H59.5265ZM74.8871 26.288C73.6071 26.288 72.4391 25.992 71.3831 25.4C70.3431 24.808 69.5111 24 68.8871 22.976C68.2791 21.952 67.9751 20.784 67.9751 19.472C67.9751 18.16 68.2791 16.992 68.8871 15.968C69.5111 14.944 70.3431 14.136 71.3831 13.544C72.4231 12.952 73.5911 12.656 74.8871 12.656C76.1671 12.656 77.3271 12.952 78.3671 13.544C79.4071 14.136 80.2311 14.944 80.8391 15.968C81.4631 16.976 81.7751 18.144 81.7751 19.472C81.7751 20.784 81.4631 21.952 80.8391 22.976C80.2151 24 79.3831 24.808 78.3431 25.4C77.3031 25.992 76.1511 26.288 74.8871 26.288ZM74.8871 23.408C75.5911 23.408 76.2071 23.24 76.7351 22.904C77.2791 22.568 77.7031 22.104 78.0071 21.512C78.3271 20.904 78.4871 20.224 78.4871 19.472C78.4871 18.704 78.3271 18.032 78.0071 17.456C77.7031 16.864 77.2791 16.4 76.7351 16.064C76.2071 15.712 75.5911 15.536 74.8871 15.536C74.1671 15.536 73.5351 15.712 72.9911 16.064C72.4471 16.4 72.0151 16.864 71.6951 17.456C71.3911 18.032 71.2391 18.704 71.2391 19.472C71.2391 20.224 71.3911 20.904 71.6951 21.512C72.0151 22.104 72.4471 22.568 72.9911 22.904C73.5351 23.24 74.1671 23.408 74.8871 23.408ZM82.3593 31.304C82.1513 31.304 81.9353 31.296 81.7113 31.28C81.4873 31.264 81.3033 31.24 81.1593 31.208V28.472C81.4473 28.52 81.7353 28.544 82.0233 28.544C82.6953 28.544 83.2153 28.384 83.5833 28.064C83.9673 27.76 84.1593 27.288 84.1593 26.648V12.944H87.3033V26.648C87.3033 27.64 87.1033 28.48 86.7033 29.168C86.3033 29.872 85.7273 30.4 84.9753 30.752C84.2393 31.12 83.3673 31.304 82.3593 31.304ZM84.1593 11.48V8.12H87.3033V11.48H84.1593ZM96.3982 26.288C95.0542 26.288 93.8782 25.984 92.8702 25.376C91.8622 24.768 91.0782 23.944 90.5182 22.904C89.9582 21.864 89.6782 20.712 89.6782 19.448C89.6782 18.136 89.9582 16.976 90.5182 15.968C91.0942 14.944 91.8702 14.136 92.8462 13.544C93.8382 12.952 94.9422 12.656 96.1582 12.656C97.1822 12.656 98.0782 12.824 98.8462 13.16C99.6302 13.496 100.294 13.96 100.838 14.552C101.382 15.144 101.798 15.824 102.086 16.592C102.374 17.344 102.518 18.16 102.518 19.04C102.518 19.264 102.502 19.496 102.47 19.736C102.454 19.976 102.414 20.184 102.35 20.36H92.2702V17.96H100.574L99.0862 19.088C99.2302 18.352 99.1902 17.696 98.9662 17.12C98.7582 16.544 98.4062 16.088 97.9102 15.752C97.4302 15.416 96.8462 15.248 96.1582 15.248C95.5022 15.248 94.9182 15.416 94.4062 15.752C93.8942 16.072 93.5022 16.552 93.2302 17.192C92.9742 17.816 92.8782 18.576 92.9422 19.472C92.8782 20.272 92.9822 20.984 93.2542 21.608C93.5422 22.216 93.9582 22.688 94.5022 23.024C95.0622 23.36 95.7022 23.528 96.4222 23.528C97.1422 23.528 97.7502 23.376 98.2462 23.072C98.7582 22.768 99.1582 22.36 99.4462 21.848L101.99 23.096C101.734 23.72 101.334 24.272 100.79 24.752C100.246 25.232 99.5982 25.608 98.8462 25.88C98.1102 26.152 97.2942 26.288 96.3982 26.288ZM111.19 26.288C109.894 26.288 108.726 25.992 107.686 25.4C106.662 24.792 105.854 23.976 105.262 22.952C104.67 21.912 104.374 20.744 104.374 19.448C104.374 18.152 104.67 16.992 105.262 15.968C105.854 14.944 106.662 14.136 107.686 13.544C108.726 12.952 109.894 12.656 111.19 12.656C112.118 12.656 112.982 12.824 113.782 13.16C114.582 13.48 115.27 13.928 115.846 14.504C116.438 15.064 116.862 15.736 117.118 16.52L114.358 17.72C114.118 17.064 113.71 16.536 113.134 16.136C112.574 15.736 111.926 15.536 111.19 15.536C110.502 15.536 109.886 15.704 109.342 16.04C108.814 16.376 108.398 16.84 108.094 17.432C107.79 18.024 107.638 18.704 107.638 19.472C107.638 20.24 107.79 20.92 108.094 21.512C108.398 22.104 108.814 22.568 109.342 22.904C109.886 23.24 110.502 23.408 111.19 23.408C111.942 23.408 112.598 23.208 113.158 22.808C113.718 22.408 114.118 21.872 114.358 21.2L117.118 22.448C116.862 23.184 116.446 23.848 115.87 24.44C115.294 25.016 114.606 25.472 113.806 25.808C113.006 26.128 112.134 26.288 111.19 26.288ZM125.455 26.144C123.983 26.144 122.839 25.744 122.023 24.944C121.223 24.128 120.823 22.984 120.823 21.512V15.752H118.567V12.944H118.807C119.447 12.944 119.943 12.776 120.295 12.44C120.647 12.104 120.823 11.616 120.823 10.976V9.968H123.967V12.944H126.967V15.752H123.967V21.344C123.967 21.776 124.039 22.144 124.183 22.448C124.343 22.752 124.583 22.984 124.903 23.144C125.239 23.304 125.663 23.384 126.175 23.384C126.287 23.384 126.415 23.376 126.559 23.36C126.719 23.344 126.871 23.328 127.015 23.312V26C126.791 26.032 126.535 26.064 126.247 26.096C125.959 26.128 125.695 26.144 125.455 26.144ZM129.681 26V8.12H132.945V26H129.681ZM136.12 26V12.944H139.072V15.512L138.832 15.056C139.136 14.272 139.632 13.68 140.32 13.28C141.024 12.864 141.84 12.656 142.768 12.656C143.728 12.656 144.576 12.864 145.312 13.28C146.064 13.696 146.648 14.28 147.064 15.032C147.48 15.768 147.688 16.624 147.688 17.6V26H144.544V18.344C144.544 17.768 144.432 17.272 144.208 16.856C143.984 16.44 143.672 16.12 143.272 15.896C142.888 15.656 142.432 15.536 141.904 15.536C141.392 15.536 140.936 15.656 140.536 15.896C140.136 16.12 139.824 16.44 139.6 16.856C139.376 17.272 139.264 17.768 139.264 18.344V26H136.12ZM150.611 26V8.12H158.147C159.331 8.12 160.339 8.328 161.171 8.744C162.019 9.144 162.667 9.72 163.115 10.472C163.579 11.208 163.811 12.104 163.811 13.16C163.811 13.976 163.587 14.744 163.139 15.464C162.707 16.168 162.011 16.752 161.051 17.216V15.704C161.931 16.04 162.627 16.456 163.139 16.952C163.651 17.448 164.011 18 164.219 18.608C164.427 19.216 164.531 19.856 164.531 20.528C164.531 22.24 163.963 23.584 162.827 24.56C161.707 25.52 160.147 26 158.147 26H150.611ZM153.875 23.12H158.483C159.331 23.12 160.003 22.888 160.499 22.424C161.011 21.944 161.267 21.312 161.267 20.528C161.267 19.744 161.011 19.112 160.499 18.632C160.003 18.152 159.331 17.912 158.483 17.912H153.875V23.12ZM153.875 15.056H158.315C158.987 15.056 159.523 14.864 159.923 14.48C160.323 14.08 160.523 13.568 160.523 12.944C160.523 12.32 160.323 11.824 159.923 11.456C159.523 11.088 158.987 10.904 158.315 10.904H153.875V15.056ZM166.941 26V12.944H170.085V26H166.941ZM166.941 11.48V8.12H170.085V11.48H166.941ZM179.371 26.288C178.091 26.288 176.923 25.992 175.867 25.4C174.827 24.808 173.995 24 173.371 22.976C172.763 21.952 172.459 20.784 172.459 19.472C172.459 18.16 172.763 16.992 173.371 15.968C173.995 14.944 174.827 14.136 175.867 13.544C176.907 12.952 178.075 12.656 179.371 12.656C180.651 12.656 181.811 12.952 182.851 13.544C183.891 14.136 184.715 14.944 185.323 15.968C185.947 16.976 186.259 18.144 186.259 19.472C186.259 20.784 185.947 21.952 185.323 22.976C184.699 24 183.867 24.808 182.827 25.4C181.787 25.992 180.635 26.288 179.371 26.288ZM179.371 23.408C180.075 23.408 180.691 23.24 181.219 22.904C181.763 22.568 182.187 22.104 182.491 21.512C182.811 20.904 182.971 20.224 182.971 19.472C182.971 18.704 182.811 18.032 182.491 17.456C182.187 16.864 181.763 16.4 181.219 16.064C180.691 15.712 180.075 15.536 179.371 15.536C178.651 15.536 178.019 15.712 177.475 16.064C176.931 16.4 176.499 16.864 176.179 17.456C175.875 18.032 175.723 18.704 175.723 19.472C175.723 20.224 175.875 20.904 176.179 21.512C176.499 22.104 176.931 22.568 177.475 22.904C178.019 23.24 178.651 23.408 179.371 23.408Z" fill="white"/>
</svg>
